<svg xmlns="http://www.w3.org/2000/svg" xmlns:xlink="http://www.w3.org/1999/xlink" width="500" zoomAndPan="magnify" viewBox="0 0 375 374.999991" height="500" preserveAspectRatio="xMidYMid meet" version="1.0">
    <g clip-path="url(#db8f07f0e0)">
        <g clip-path="url(#7a0682a096)">
            <path fill="#000000" d="M 17.507812 227.222656 L 70.46875 227.222656 L 70.46875 280.183594 L 17.507812 280.183594 Z M 17.507812 227.222656 " fill-opacity="1" fill-rule="nonzero"/>
        </g>
    </g>
    <path stroke-linecap="butt" transform="matrix(0.584473, -0.469991, 0.469991, 0.584473, 60.628825, 232.137993)" fill="none" stroke-linejoin="miter" d="M 0.00175652 8.500482 L 95.740644 8.501007 " stroke="#000000" stroke-width="17" stroke-opacity="1" stroke-miterlimit="4"/>
    <g clip-path="url(#8ab6f7780f)">
        <g clip-path="url(#4f868dc378)">
            <path fill="#000000" d="M 114.738281 149.035156 L 167.699219 149.035156 L 167.699219 201.996094 L 114.738281 201.996094 Z M 114.738281 149.035156 " fill-opacity="1" fill-rule="nonzero"/>
        </g>
    </g>
    <path stroke-linecap="butt" transform="matrix(0.534145, 0.526487, -0.526487, 0.534145, 164.553817, 189.565519)" fill="none" stroke-linejoin="miter" d="M -0.000786372 8.500245 L 65.23889 8.499854 " stroke="#000000" stroke-width="17" stroke-opacity="1" stroke-miterlimit="4"/>
    <g clip-path="url(#0c4f148a8e)">
        <g clip-path="url(#cb54dcaef3)">
            <path fill="#000000" d="M 187.304688 220.558594 L 240.265625 220.558594 L 240.265625 273.523438 L 187.304688 273.523438 Z M 187.304688 220.558594 " fill-opacity="1" fill-rule="nonzero"/>
        </g>
    </g>
    <path stroke-linecap="butt" transform="matrix(0.584473, -0.469991, 0.469991, 0.584473, 230.428144, 225.476836)" fill="none" stroke-linejoin="miter" d="M -0.00161884 8.499479 L 95.741327 8.503267 " stroke="#000000" stroke-width="17" stroke-opacity="1" stroke-miterlimit="4"/>
    <g clip-path="url(#14d1b1a1be)">
        <g clip-path="url(#f4ac721278)">
            <path fill="#000000" d="M 284.539062 142.371094 L 337.5 142.371094 L 337.5 195.335938 L 284.539062 195.335938 Z M 284.539062 142.371094 " fill-opacity="1" fill-rule="nonzero"/>
        </g>
    </g>
</svg>